<?xml version="1.0" encoding="UTF-8" standalone="no"?>
<!-- Created with Inkscape (http://www.inkscape.org/) -->

<svg xmlns:dc="http://purl.org/dc/elements/1.1/" xmlns:cc="http://creativecommons.org/ns#" xmlns:rdf="http://www.w3.org/1999/02/22-rdf-syntax-ns#" xmlns:svg="http://www.w3.org/2000/svg" xmlns="http://www.w3.org/2000/svg" xmlns:sodipodi="http://sodipodi.sourceforge.net/DTD/sodipodi-0.dtd" xmlns:inkscape="http://www.inkscape.org/namespaces/inkscape" width="171.75238mm" height="122.19627mm" viewBox="0 0 608.57143 432.97892" id="svg4874" version="1.1" inkscape:version="0.91 r13725" sodipodi:docname="Wifi-Router.svg">
  <defs id="defs4876" />
  <sodipodi:namedview id="base" pagecolor="#ffffff" bordercolor="#666666" borderopacity="1.0" inkscape:pageopacity="0.0" inkscape:pageshadow="2" inkscape:zoom="0.9899495" inkscape:cx="65.814678" inkscape:cy="295.70804" inkscape:document-units="px" inkscape:current-layer="layer1" showgrid="false" fit-margin-top="0" fit-margin-left="0" fit-margin-right="0" fit-margin-bottom="0" inkscape:window-width="1680" inkscape:window-height="971" inkscape:window-x="0" inkscape:window-y="21" inkscape:window-maximized="1" />
  <metadata id="metadata4879">
    <rdf:RDF>
      <cc:Work rdf:about="">
        <dc:format>image/svg+xml</dc:format>
        <dc:type rdf:resource="http://purl.org/dc/dcmitype/StillImage" />
        <dc:title />
        <cc:license rdf:resource="http://creativecommons.org/publicdomain/zero/1.0/" />
      </cc:Work>
      <cc:License rdf:about="http://creativecommons.org/publicdomain/zero/1.0/">
        <cc:permits rdf:resource="http://creativecommons.org/ns#Reproduction" />
        <cc:permits rdf:resource="http://creativecommons.org/ns#Distribution" />
        <cc:permits rdf:resource="http://creativecommons.org/ns#DerivativeWorks" />
      </cc:License>
    </rdf:RDF>
  </metadata>
  <g inkscape:label="Ebene 1" inkscape:groupmode="layer" id="layer1" transform="translate(-67.761536,-56.850135)">
    <rect style="opacity:1;fill:#000000;fill-opacity:1;fill-rule:nonzero;stroke:none;stroke-width:3.77952766;stroke-linecap:round;stroke-linejoin:round;stroke-miterlimit:4;stroke-dasharray:none;stroke-dashoffset:0;stroke-opacity:1" id="rect5422" width="608.57141" height="142.85715" x="67.761536" y="315.21936" ry="22.857143" />
    <rect style="opacity:1;fill:#ffffff;fill-opacity:1;fill-rule:nonzero;stroke:none;stroke-width:3.77952766;stroke-linecap:round;stroke-linejoin:round;stroke-miterlimit:4;stroke-dasharray:none;stroke-dashoffset:0;stroke-opacity:1" id="rect5424" width="467.70062" height="64.649765" x="138.19693" y="355.35693" ry="22.8571" />
    <g id="g5444" transform="translate(4.3885498,2.3721542)">
      <circle r="14.208668" cy="385.30966" cx="179.7301" id="path5432" style="opacity:1;fill:#00e113;fill-opacity:1;fill-rule:nonzero;stroke:none;stroke-width:3.77952766;stroke-linecap:round;stroke-linejoin:round;stroke-miterlimit:4;stroke-dasharray:none;stroke-dashoffset:0;stroke-opacity:1" />
      <circle style="opacity:1;fill:#d40000;fill-opacity:1;fill-rule:nonzero;stroke:none;stroke-width:3.77952766;stroke-linecap:round;stroke-linejoin:round;stroke-miterlimit:4;stroke-dasharray:none;stroke-dashoffset:0;stroke-opacity:1" id="circle5434" cx="273.6944" cy="385.30966" r="14.208668" />
      <circle r="14.208668" cy="385.30966" cx="367.65869" id="circle5436" style="opacity:1;fill:#00e113;fill-opacity:1;fill-rule:nonzero;stroke:none;stroke-width:3.77952766;stroke-linecap:round;stroke-linejoin:round;stroke-miterlimit:4;stroke-dasharray:none;stroke-dashoffset:0;stroke-opacity:1" />
      <circle style="opacity:1;fill:#00e113;fill-opacity:1;fill-rule:nonzero;stroke:none;stroke-width:3.77952766;stroke-linecap:round;stroke-linejoin:round;stroke-miterlimit:4;stroke-dasharray:none;stroke-dashoffset:0;stroke-opacity:1" id="circle5438" cx="461.62299" cy="385.30966" r="14.208668" />
      <circle r="14.208668" cy="385.30966" cx="555.58728" id="circle5440" style="opacity:1;fill:#00e113;fill-opacity:1;fill-rule:nonzero;stroke:none;stroke-width:3.77952766;stroke-linecap:round;stroke-linejoin:round;stroke-miterlimit:4;stroke-dasharray:none;stroke-dashoffset:0;stroke-opacity:1" />
    </g>
    <g id="g5455" transform="translate(-2.3741188,-12)">
      <rect ry="16.667517" y="468.49402" x="107.07617" height="33.335033" width="68.690376" id="rect5451" style="opacity:1;fill:#000000;fill-opacity:1;fill-rule:nonzero;stroke:none;stroke-width:3.77952766;stroke-linecap:round;stroke-linejoin:round;stroke-miterlimit:4;stroke-dasharray:none;stroke-dashoffset:0;stroke-opacity:1" />
      <rect style="opacity:1;fill:#000000;fill-opacity:1;fill-rule:nonzero;stroke:none;stroke-width:3.77952766;stroke-linecap:round;stroke-linejoin:round;stroke-miterlimit:4;stroke-dasharray:none;stroke-dashoffset:0;stroke-opacity:1" id="rect5453" width="68.690376" height="33.335033" x="573.07617" y="468.49402" ry="16.667517" />
    </g>
    <g id="g6764">
      <path style="fill:#000000;fill-opacity:1" inkscape:connector-curvature="0" d="m 372.04725,265.80706 q -2.13558,0 -9.93046,-7.84827 -7.79488,-7.84827 -7.79488,-9.98385 0,-3.41693 6.6737,-5.76607 6.67369,-2.34914 11.05164,-2.34914 4.37794,0 11.05164,2.34914 6.6737,2.34914 6.6737,5.76607 0,2.13558 -7.79488,9.98385 -7.79488,7.84827 -9.93046,7.84827 z m 28.83037,-28.93715 q -0.21356,0 -4.27117,-2.66948 -4.05761,-2.66948 -10.83808,-5.33896 -6.78048,-2.66948 -13.72112,-2.66948 -6.94065,0 -13.72112,2.66948 -6.78048,2.66948 -10.7847,5.33896 -4.00422,2.66948 -4.32455,2.66948 -1.92203,0 -9.98385,-8.00844 -8.06183,-8.00843 -8.06183,-9.93046 0,-1.38813 1.06779,-2.45592 8.32878,-8.22199 20.92872,-12.92028 12.59994,-4.69829 24.87954,-4.69829 12.2796,0 24.87954,4.69829 12.59994,4.69829 20.92871,12.92028 1.0678,1.06779 1.0678,2.45592 0,1.92203 -8.06183,9.93046 -8.06183,8.00844 -9.98385,8.00844 z m 29.15071,-29.04393 q -1.17457,0 -2.45592,-0.85423 -14.52197,-11.21183 -26.90835,-16.49738 -12.38638,-5.28557 -28.61681,-5.28557 -9.07623,0 -18.20585,2.34914 -9.12961,2.34914 -15.91009,5.6593 -6.78048,3.31015 -12.11943,6.6203 -5.33896,3.31016 -8.43556,5.6593 -3.09659,2.34914 -3.31015,2.34914 -1.81525,0 -9.82368,-8.00844 -8.00844,-8.00843 -8.00844,-9.93046 0,-1.28135 1.06779,-2.34914 14.09485,-14.09485 34.16933,-21.88973 20.07448,-7.79488 40.57608,-7.79488 20.50159,0 40.57608,7.79488 20.07448,7.79488 34.16932,21.88973 1.0678,1.06779 1.0678,2.34914 0,1.92203 -8.00844,9.93046 -8.00844,8.00844 -9.82368,8.00844 z m 28.93715,-28.93716 q -1.17457,0 -2.34914,-0.961 -19.11347,-16.76433 -39.66846,-25.25327 -20.55499,-8.48896 -44.90063,-8.48896 -24.34565,0 -44.90064,8.48896 -20.55498,8.48894 -39.66845,25.25327 -1.17457,0.961 -2.34914,0.961 -1.81525,0 -9.87708,-8.00843 -8.06182,-8.00844 -8.06182,-9.93046 0,-1.38813 1.06779,-2.45592 19.9677,-19.86093 47.51672,-30.7524 27.54903,-10.89147 56.27262,-10.89147 28.72359,0 56.27261,10.89147 27.54902,10.89148 47.51672,30.7524 1.06779,1.06779 1.06779,2.45591 0,1.92203 -8.06182,9.93047 -8.06183,8.00843 -9.87707,8.00843 z" id="path6599" />
      <g transform="translate(5.0830317,0)" id="g5489">
        <path style="fill:#000000;fill-rule:evenodd;stroke:#000000;stroke-width:16.10000038;stroke-linecap:round;stroke-linejoin:miter;stroke-miterlimit:4;stroke-dasharray:none;stroke-opacity:1" d="m 175.71429,323.79078 0,-194.28572" id="path5463" inkscape:connector-curvature="0" />
        <circle style="opacity:1;fill:#000000;fill-opacity:1;fill-rule:nonzero;stroke:none;stroke-width:16.10000038;stroke-linecap:round;stroke-linejoin:round;stroke-miterlimit:4;stroke-dasharray:none;stroke-dashoffset:0;stroke-opacity:1" id="path5487" cx="175.71429" cy="115.93363" r="15.714286" />
      </g>
      <g transform="translate(387.58286,0)" id="g6706">
        <g id="g6710">
          <path style="fill:#000000;fill-rule:evenodd;stroke:#000000;stroke-width:16.10000038;stroke-linecap:round;stroke-linejoin:miter;stroke-miterlimit:4;stroke-dasharray:none;stroke-opacity:1" d="m 175.71429,323.79078 0,-194.28572" id="path6712" inkscape:connector-curvature="0" />
          <circle style="opacity:1;fill:#000000;fill-opacity:1;fill-rule:nonzero;stroke:none;stroke-width:16.10000038;stroke-linecap:round;stroke-linejoin:round;stroke-miterlimit:4;stroke-dasharray:none;stroke-dashoffset:0;stroke-opacity:1" id="circle6714" cx="175.71429" cy="115.93363" r="15.714286" />
        </g>
      </g>
    </g>
  </g>
</svg>
