<?xml version="1.0" encoding="UTF-8" standalone="no"?>
<!-- Created with Inkscape (http://www.inkscape.org/) -->

<svg xmlns:dc="http://purl.org/dc/elements/1.1/" xmlns:cc="http://creativecommons.org/ns#" xmlns:rdf="http://www.w3.org/1999/02/22-rdf-syntax-ns#" xmlns:svg="http://www.w3.org/2000/svg" xmlns="http://www.w3.org/2000/svg" xmlns:sodipodi="http://sodipodi.sourceforge.net/DTD/sodipodi-0.dtd" xmlns:inkscape="http://www.inkscape.org/namespaces/inkscape" width="88.69841mm" height="219.51212mm" viewBox="0 0 314.2857 777.79883" id="svg7817" version="1.1" inkscape:version="0.91 r13725" sodipodi:docname="wifi-smartphone.svg">
  <defs id="defs7819" />
  <sodipodi:namedview id="base" pagecolor="#ffffff" bordercolor="#666666" borderopacity="1.0" inkscape:pageopacity="0.0" inkscape:pageshadow="2" inkscape:zoom="0.49497475" inkscape:cx="-285.13633" inkscape:cy="575.17675" inkscape:document-units="px" inkscape:current-layer="layer1" showgrid="false" fit-margin-top="0" fit-margin-left="0" fit-margin-right="0" fit-margin-bottom="0" inkscape:window-width="1680" inkscape:window-height="971" inkscape:window-x="0" inkscape:window-y="21" inkscape:window-maximized="1" />
  <metadata id="metadata7822">
    <rdf:RDF>
      <cc:Work rdf:about="">
        <dc:format>image/svg+xml</dc:format>
        <dc:type rdf:resource="http://purl.org/dc/dcmitype/StillImage" />
        <dc:title></dc:title>
        <cc:license rdf:resource="http://creativecommons.org/publicdomain/zero/1.0/" />
      </cc:Work>
      <cc:License rdf:about="http://creativecommons.org/publicdomain/zero/1.0/">
        <cc:permits rdf:resource="http://creativecommons.org/ns#Reproduction" />
        <cc:permits rdf:resource="http://creativecommons.org/ns#Distribution" />
        <cc:permits rdf:resource="http://creativecommons.org/ns#DerivativeWorks" />
      </cc:License>
    </rdf:RDF>
  </metadata>
  <g inkscape:label="Ebene 1" inkscape:groupmode="layer" id="layer1" transform="translate(-140,-191.70619)">
    <g id="g8429">
      <g id="g8425">
        <rect style="opacity:1;fill:#000000;fill-opacity:1;fill-rule:nonzero;stroke:none;stroke-width:16.10000038;stroke-linecap:round;stroke-linejoin:round;stroke-miterlimit:4;stroke-dasharray:none;stroke-dashoffset:0;stroke-opacity:1" id="rect8365" width="314.28571" height="588.57141" x="140" y="380.93362" ry="22.8571" />
        <rect style="opacity:1;fill:#ffffff;fill-opacity:1;fill-rule:nonzero;stroke:none;stroke-width:16.10000038;stroke-linecap:round;stroke-linejoin:round;stroke-miterlimit:4;stroke-dasharray:none;stroke-dashoffset:0;stroke-opacity:1" id="rect8367" width="237.14285" height="520" x="178.57143" y="415.21933" ry="22.8571" />
      </g>
      <path style="fill:#009ee0;fill-opacity:1" inkscape:connector-curvature="0" d="m 297.14285,342.66385 q -2.16427,0 -10.06384,-7.95368 -7.89958,-7.95369 -7.89958,-10.11795 0,-3.46284 6.76334,-5.84352 6.76333,-2.3807 11.20008,-2.3807 4.43675,0 11.20008,2.3807 6.76334,2.38068 6.76334,5.84352 0,2.16426 -7.89958,10.11795 -7.89958,7.95368 -10.06384,7.95368 z m 29.21762,-29.32583 q -0.21643,0 -4.32854,-2.70532 -4.11211,-2.70534 -10.98366,-5.41068 -6.87155,-2.70534 -13.90542,-2.70534 -7.03386,0 -13.90542,2.70534 -6.87155,2.70534 -10.92955,5.41068 -4.058,2.70532 -4.38265,2.70532 -1.94784,0 -10.11795,-8.116 -8.1701,-8.116 -8.1701,-10.06384 0,-1.40678 1.08214,-2.48891 8.44063,-8.33243 21.2098,-13.09382 12.76919,-4.76139 25.21373,-4.76139 12.44454,0 25.21372,4.76139 12.76918,4.76139 21.20982,13.09382 1.08213,1.08213 1.08213,2.48891 0,1.94784 -8.1701,10.06384 -8.17011,8.116 -10.11795,8.116 z m 29.54224,-29.43403 q -1.19034,0 -2.4889,-0.86571 -14.71702,-11.36241 -27.26977,-16.71897 -12.55276,-5.35656 -29.00119,-5.35656 -9.19814,0 -18.45039,2.3807 -9.25223,2.3807 -16.12378,5.7353 -6.87156,3.35462 -12.28222,6.70923 -5.41068,3.35462 -8.54886,5.73531 -3.13819,2.3807 -3.35461,2.3807 -1.83963,0 -9.95563,-8.11601 -8.11602,-8.116 -8.11602,-10.06383 0,-1.29857 1.08214,-2.3807 14.28417,-14.28417 34.62828,-22.18375 20.34412,-7.89958 41.12109,-7.89958 20.77697,0 41.12109,7.89958 20.34411,7.89958 34.62828,22.18375 1.08213,1.08213 1.08213,2.3807 0,1.94783 -8.116,10.06383 -8.11601,8.11601 -9.95564,8.11601 z m 29.32583,-29.32582 q -1.19035,0 -2.3807,-0.97393 -19.37019,-16.9895 -40.20126,-25.59247 -20.83108,-8.60296 -45.50373,-8.60296 -24.67265,0 -45.50373,8.60296 -20.83107,8.60297 -40.20127,25.59247 -1.19035,0.97393 -2.38069,0.97393 -1.83963,0 -10.00973,-8.11602 -8.17012,-8.11599 -8.17012,-10.06384 0,-1.40677 1.08213,-2.4889 20.23591,-20.1277 48.15495,-31.16546 27.91906,-11.03776 57.02846,-11.03776 29.1094,0 57.02845,11.03776 27.91905,11.03776 48.15496,31.16546 1.08213,1.08213 1.08213,2.4889 0,1.94785 -8.17012,10.06384 -8.1701,8.11602 -10.00973,8.11602 z" id="path8416" />
    </g>
  </g>
</svg>
